PathFileType  4	(X/Y/Z) C:\Users\antoi\Documents\MyRepositories\mobilecap\ResultsAnalysis
DataRate	CameraRate	NumFrames	NumMarkers	Units	OrigDataRate	OrigDataStartFrame	OrigNumFrames
100.0	100.0	6	51	mm	100.0	1	294
Frame#	Time	r_knee			r_shank_antsup			r_ankle			r_calc			r_5meta			r_toe			L_knee			L_shank_antsup			L_ankle			L_calc			L_5meta			L_toe			r_sh2			r_sh3			r_sh4			L_sh2			L_sh3			r_thigh1			r_thigh2			r_thigh3			r_thigh4			r_thigh5			L_thigh1			L_thigh2			L_thigh3			L_thigh4			r.ASIS			r.PSIS			L.ASIS			L.PSIS			C7			R_Shoulder			L_Shoulder			R_Sternum			L_Sternum			R_humerus			R_elbow_med			R_elbow_lat			R_forearm			R_wrist_radius			R_wrist_ulna			L_humerus			L_elbow_med			L_elbow_lat			L_forearm			L_wrist_radius			L_wrist_ulna			R_HJC			L_HJC			R_HJC_reg			L_HJC_reg			
		X1	Y1	Z1	X2	Y2	Z2	X3	Y3	Z3	X4	Y4	Z4	X5	Y5	Z5	X6	Y6	Z6	X7	Y7	Z7	X8	Y8	Z8	X9	Y9	Z9	X10	Y10	Z10	X11	Y11	Z11	X12	Y12	Z12	X13	Y13	Z13	X14	Y14	Z14	X15	Y15	Z15	X16	Y16	Z16	X17	Y17	Z17	X18	Y18	Z18	X19	Y19	Z19	X20	Y20	Z20	X21	Y21	Z21	X22	Y22	Z22	X23	Y23	Z23	X24	Y24	Z24	X25	Y25	Z25	X26	Y26	Z26	X27	Y27	Z27	X28	Y28	Z28	X29	Y29	Z29	X30	Y30	Z30	X31	Y31	Z31	X32	Y32	Z32	X33	Y33	Z33	X34	Y34	Z34	X35	Y35	Z35	X36	Y36	Z36	X37	Y37	Z37	X38	Y38	Z38	X39	Y39	Z39	X40	Y40	Z40	X41	Y41	Z41	X42	Y42	Z42	X43	Y43	Z43	X44	Y44	Z44	X45	Y45	Z45	X46	Y46	Z46	X47	Y47	Z47	X48	Y48	Z48	X49	Y49	Z49	X50	Y50	Z50	X51	Y51	Z51	

1	0.00000000	-1214.49999	782.49469	-415.29914	-1181.92895	671.62388	-432.46932	-1253.49307	397.40651	-449.93526	-1302.05029	358.78788	-497.79773	-1139.15234	347.53464	-418.85791	-1103.94311	366.22577	-462.62604	-1216.55286	781.42405	-753.39066	-1182.19921	682.45123	-711.44148	-1264.04541	396.09158	-728.09274	-1305.10070	366.88032	-692.12201	-1142.60266	346.72273	-742.61121	-1103.89344	367.10756	-689.84613	-1193.03197	560.69275	-443.70310	-1235.88876	671.78254	-377.43509	-1262.89380	562.85335	-400.19925	-1235.29196	703.33561	-780.21910	-1248.61645	582.60199	-786.82471	-1116.12642	1078.52892	-435.78425	-1115.27562	970.01553	-428.40063	-1159.49583	946.42765	-383.29805	-1217.36205	1077.98667	-388.75791	-1213.32433	963.51685	-380.70898	-1126.06643	1072.37550	-756.00904	-1122.21021	930.37622	-756.20361	-1231.89551	1071.40062	-798.03888	-1228.95204	930.49504	-786.90454	-1098.09227	1239.36804	-467.23662	-1275.74191	1303.75038	-539.08387	-1090.36670	1238.74401	-713.90821	-1275.46275	1304.43763	-656.19556	-1257.05538	1756.70670	-591.98393	-1209.69113	1714.13392	-438.41486	-1203.00033	1722.88535	-749.42739	-1140.47356	1699.88036	-570.60969	-1139.69592	1698.06898	-612.73631	-1183.94811	1586.48186	-373.98277	-1244.80064	1386.95703	-427.29406	-1218.81968	1393.28215	-355.35496	-1156.86817	1282.08357	-341.88916	-1118.27287	1184.57387	-347.88999	-1148.78262	1175.82320	-326.73654	-1172.58776	1571.06726	-810.52469	-1241.29092	1378.78009	-760.88457	-1215.59252	1388.51780	-830.08665	-1159.62536	1307.22769	-846.90138	-1112.57169	1185.24891	-835.16806	-1137.58145	1175.15838	-852.71715	-1195.96795	1179.02276	-496.05679	-1186.98038	1174.89486	-685.17614	-1176.04790	1177.62502	-502.38437	-1175.65964	1178.58086	-665.26470	
2	0.01000000	-1214.52216	782.54419	-415.25226	-1181.99082	671.60105	-432.36943	-1253.51166	397.46499	-449.87638	-1302.06263	358.75555	-497.77960	-1139.14830	347.55658	-418.84550	-1103.96097	366.24372	-462.62116	-1216.51894	781.42208	-753.39154	-1182.14720	682.46284	-711.48066	-1264.04650	396.09091	-728.09327	-1305.11594	366.86415	-692.09339	-1142.64040	346.68228	-742.64075	-1103.93268	367.10418	-689.94836	-1193.04167	560.69544	-443.70329	-1235.90547	671.75377	-377.52006	-1262.88742	562.77617	-400.22945	-1235.28232	703.30668	-780.21195	-1248.58366	582.56342	-786.71910	-1115.98244	1078.59699	-436.01989	-1115.25300	970.07413	-428.40649	-1159.43042	946.51067	-383.30208	-1217.34164	1077.84619	-388.96833	-1213.43995	963.45817	-380.86881	-1126.06132	1072.34969	-756.06421	-1122.16117	930.39489	-756.15434	-1231.84312	1071.33017	-797.98722	-1228.83404	930.36848	-786.57179	-1098.00723	1239.34791	-467.32307	-1275.58514	1303.77458	-539.07112	-1090.27672	1238.71748	-713.91282	-1275.40262	1304.44462	-656.20331	-1256.61537	1756.87241	-591.99017	-1209.12737	1714.19010	-438.43425	-1202.45479	1722.95740	-749.22049	-1139.95532	1699.81694	-570.49426	-1139.23412	1698.17576	-613.02062	-1183.58073	1586.52438	-373.99123	-1244.76236	1387.10174	-427.07639	-1218.72694	1393.41675	-355.15604	-1156.88517	1282.15868	-341.74772	-1118.33102	1184.64040	-347.74028	-1148.85499	1175.93161	-326.55608	-1172.29619	1571.12083	-810.69229	-1240.99249	1378.92849	-760.65872	-1215.54915	1388.64436	-830.11125	-1159.64905	1307.23148	-846.93281	-1112.67451	1185.24099	-835.22555	-1137.76665	1175.28404	-852.98318	-1195.87230	1179.02324	-496.07446	-1186.92213	1174.88978	-685.19546	-1175.90822	1177.67867	-502.37991	-1175.65451	1178.61011	-665.20675	
3	0.02000000	-1214.52660	782.56123	-415.24627	-1182.01386	671.59898	-432.34834	-1253.48493	397.49370	-449.82303	-1302.06369	358.76560	-497.82676	-1139.14678	347.57349	-418.84513	-1103.97021	366.24809	-462.61526	-1216.49591	781.42688	-753.40196	-1182.09556	682.48816	-711.53523	-1264.05302	396.09260	-728.08702	-1305.12679	366.86228	-692.08967	-1142.64395	346.65741	-742.64348	-1103.92604	367.10424	-689.97006	-1193.04772	560.68426	-443.69589	-1235.96075	671.74558	-377.52124	-1263.13963	563.40635	-400.07010	-1235.26847	703.29949	-780.22287	-1248.57224	582.54625	-786.68094	-1115.93993	1078.59256	-436.05727	-1115.25455	970.08308	-428.41646	-1159.37035	946.50184	-383.38864	-1217.26153	1077.86584	-388.97924	-1213.37961	963.46793	-380.86545	-1125.99173	1072.30716	-756.07238	-1122.14707	930.38157	-756.15484	-1231.80156	1071.30065	-797.96570	-1228.76014	930.38417	-786.51560	-1097.93663	1239.33408	-467.35065	-1275.47958	1303.78373	-539.08794	-1090.20564	1238.70585	-713.91738	-1275.33323	1304.47703	-656.29188	-1256.09791	1756.90341	-592.09507	-1208.64623	1714.25521	-438.37784	-1201.94407	1723.03967	-749.08154	-1139.40287	1699.74856	-570.53438	-1138.83482	1698.14710	-613.12873	-1183.16443	1586.53310	-373.97357	-1244.84229	1387.20878	-426.83046	-1218.63955	1393.56376	-354.97467	-1156.89072	1282.17306	-341.63932	-1118.39293	1184.67035	-347.60647	-1148.91095	1176.03372	-326.33352	-1172.00174	1571.23232	-810.79711	-1240.71103	1379.08293	-760.47381	-1215.52250	1388.77734	-830.13859	-1159.67034	1307.24852	-846.95555	-1112.76210	1185.23645	-835.26042	-1137.94452	1175.37166	-853.16352	-1195.81754	1179.02886	-496.11009	-1186.85533	1174.89470	-685.23052	-1175.81593	1177.66690	-502.39011	-1175.61262	1178.62996	-665.20170	
4	0.03000000	-1214.51688	782.56919	-415.26171	-1181.99353	671.61996	-432.40921	-1253.45222	397.50949	-449.83408	-1302.05841	358.81099	-497.96823	-1139.15112	347.57449	-418.85384	-1103.97063	366.24917	-462.62134	-1216.48968	781.43119	-753.41865	-1182.06510	682.50513	-711.57414	-1264.06051	396.08454	-728.07157	-1305.12586	366.86600	-692.09758	-1142.62897	346.63376	-742.60058	-1103.90772	367.10057	-689.90914	-1193.02993	560.68731	-443.72080	-1235.97723	671.77676	-377.47416	-1263.32275	563.88213	-399.95011	-1235.26468	703.30583	-780.23084	-1248.54466	582.52243	-786.65391	-1115.96838	1078.54953	-435.97812	-1115.24174	970.07618	-428.43517	-1159.35259	946.46546	-383.49568	-1217.15676	1077.96552	-388.86153	-1213.19400	963.54835	-380.72337	-1126.15367	1072.40451	-756.11765	-1122.11270	930.36072	-756.21813	-1231.77024	1071.37447	-798.18589	-1228.74342	930.45389	-786.65888	-1097.88108	1239.32026	-467.37925	-1275.37635	1303.80824	-539.12302	-1090.14917	1238.68362	-713.94701	-1275.24838	1304.52163	-656.39482	-1255.41484	1756.76897	-592.36679	-1208.16817	1714.32684	-438.25853	-1201.48147	1723.11096	-749.04020	-1138.85125	1699.71234	-570.52193	-1138.40859	1697.99007	-612.99966	-1182.73511	1586.50593	-373.96044	-1244.90217	1387.31455	-426.62777	-1218.56734	1393.71304	-354.82404	-1156.90368	1282.18511	-341.55147	-1118.46454	1184.69598	-347.43693	-1148.94829	1176.09344	-326.10133	-1171.69739	1571.32999	-810.83838	-1240.56175	1379.21173	-760.42054	-1215.50833	1388.91861	-830.15964	-1159.69730	1307.27731	-846.98503	-1112.86050	1185.23957	-835.30474	-1138.10001	1175.40330	-853.23484	-1195.78088	1179.04347	-496.15751	-1186.80375	1174.90110	-685.27704	-1175.75671	1177.65165	-502.41622	-1175.57903	1178.64204	-665.22837	
5	0.04000000	-1214.50622	782.58579	-415.27199	-1181.96533	671.64323	-432.46066	-1253.46887	397.51984	-449.90493	-1302.06370	358.82059	-498.05292	-1139.15799	347.56810	-418.86165	-1103.96563	366.26133	-462.64911	-1216.49056	781.42247	-753.43206	-1182.05628	682.49946	-711.58683	-1264.06745	396.05939	-728.05087	-1305.10736	366.86044	-692.09504	-1142.62293	346.61235	-742.56903	-1103.91596	367.09064	-689.86545	-1193.01508	560.70482	-443.77872	-1235.91075	671.83854	-377.45107	-1263.14795	563.42558	-400.07664	-1235.27059	703.29680	-780.24443	-1248.48876	582.47790	-786.58266	-1115.92628	1078.51843	-435.98025	-1115.19143	970.09023	-428.45890	-1159.33869	946.48804	-383.53756	-1217.10101	1077.99832	-388.78367	-1213.07841	963.59695	-380.66302	-1126.27269	1072.40388	-756.29011	-1122.01789	930.35537	-756.33766	-1231.74568	1071.50912	-798.59797	-1228.77325	930.46979	-786.88643	-1097.82323	1239.30652	-467.44843	-1275.21088	1303.86953	-539.17201	-1090.11458	1238.64111	-714.04679	-1275.14255	1304.55603	-656.42827	-1254.71225	1756.70527	-592.39811	-1207.60673	1714.40943	-438.16286	-1201.04449	1723.13303	-749.05114	-1138.31345	1699.73397	-570.35121	-1137.76748	1697.85173	-612.70237	-1182.37294	1586.49578	-373.96757	-1244.78955	1387.47028	-426.52595	-1218.51173	1393.85599	-354.70020	-1156.91430	1282.25455	-341.43294	-1118.56100	1184.76281	-347.19185	-1148.99328	1176.13350	-325.91284	-1171.35161	1571.37776	-810.89735	-1240.47491	1379.33097	-760.44393	-1215.48250	1389.06381	-830.16450	-1159.73102	1307.29721	-847.01862	-1112.99539	1185.24410	-835.40917	-1138.23191	1175.40792	-853.24752	-1195.71814	1179.06983	-496.20798	-1186.78420	1174.90233	-685.32900	-1175.69845	1177.68865	-502.43499	-1175.60363	1178.64191	-665.26714	
6	0.05000000	-1214.49526	782.59256	-415.28909	-1181.96036	671.64268	-432.43373	-1253.49419	397.51577	-449.94168	-1302.07963	358.78129	-498.01297	-1139.15172	347.57815	-418.85818	-1103.95905	366.28022	-462.68634	-1216.48410	781.39987	-753.44732	-1182.05068	682.48573	-711.59978	-1264.07278	396.03604	-728.04604	-1305.08989	366.84624	-692.09453	-1142.62363	346.61763	-742.60065	-1103.92950	367.08752	-689.89670	-1193.04182	560.69115	-443.79821	-1235.81133	671.87416	-377.47960	-1262.90140	562.79084	-400.25050	-1235.24574	703.27563	-780.31571	-1248.48641	582.47087	-786.59253	-1115.78220	1078.51154	-436.08702	-1115.14956	970.11324	-428.47782	-1159.29031	946.53081	-383.53186	-1217.08185	1077.97172	-388.78028	-1213.07414	963.56121	-380.77516	-1125.43908	1071.73986	-756.47541	-1121.92216	930.35408	-756.46619	-1231.72335	1071.57320	-798.84387	-1228.80686	930.44825	-787.11181	-1097.74717	1239.30324	-467.49952	-1275.01933	1303.93133	-539.24900	-1090.10135	1238.61604	-714.22686	-1275.00727	1304.59095	-656.44230	-1254.19506	1756.85526	-591.89901	-1206.98508	1714.48303	-438.13350	-1200.58368	1723.13704	-749.08026	-1137.72700	1699.76043	-570.31631	-1136.97939	1697.82049	-612.47476	-1182.06177	1586.54670	-373.94370	-1244.61676	1387.65483	-426.45588	-1218.46115	1394.00317	-354.58216	-1156.91508	1282.33934	-341.24342	-1118.68681	1184.85078	-346.92437	-1149.06958	1176.21357	-325.75181	-1170.97663	1571.44289	-811.01825	-1240.21672	1379.50487	-760.41016	-1215.43397	1389.23354	-830.19315	-1159.74749	1307.30563	-847.02313	-1113.14218	1185.22197	-835.55520	-1138.34573	1175.41222	-853.24919	-1195.62782	1179.10104	-496.27678	-1186.76264	1174.91288	-685.40057	-1175.64431	1177.70569	-502.45555	-1175.62757	1178.62266	-665.37179	
